<mxfile host="app.diagrams.net" modified="2023-05-23T01:26:07.041Z" agent="Mozilla/5.0 (Windows NT 10.0; Win64; x64) AppleWebKit/537.36 (KHTML, like Gecko) Chrome/113.0.0.0 Safari/537.36 Edg/113.0.1774.50" etag="EDaXum2NCfUDW4nEk-7z" version="21.3.2" type="device">
  <diagram id="C5RBs43oDa-KdzZeNtuy" name="Page-1">
    <mxGraphModel dx="934" dy="599" grid="1" gridSize="10" guides="1" tooltips="1" connect="1" arrows="1" fold="1" page="1" pageScale="1" pageWidth="827" pageHeight="1169" math="0" shadow="0">
      <root>
        <mxCell id="WIyWlLk6GJQsqaUBKTNV-0" />
        <mxCell id="WIyWlLk6GJQsqaUBKTNV-1" parent="WIyWlLk6GJQsqaUBKTNV-0" />
        <mxCell id="sxQEGzrt_uQ9CWILu95c-0" value="Inicio" style="rounded=1;whiteSpace=wrap;html=1;strokeColor=#BAC8D3;fontColor=#EEEEEE;fillColor=#09555B;" vertex="1" parent="WIyWlLk6GJQsqaUBKTNV-1">
          <mxGeometry x="310" y="40" width="70" height="30" as="geometry" />
        </mxCell>
        <mxCell id="sxQEGzrt_uQ9CWILu95c-1" value="Fin." style="rounded=1;whiteSpace=wrap;html=1;strokeColor=#BAC8D3;fontColor=#EEEEEE;fillColor=#09555B;" vertex="1" parent="WIyWlLk6GJQsqaUBKTNV-1">
          <mxGeometry x="310" y="600" width="70" height="30" as="geometry" />
        </mxCell>
        <mxCell id="sxQEGzrt_uQ9CWILu95c-2" value="Imprimir &quot;Ingrese su nombre:&quot;" style="shape=parallelogram;perimeter=parallelogramPerimeter;whiteSpace=wrap;html=1;fixedSize=1;strokeColor=#BAC8D3;fontColor=#EEEEEE;fillColor=#09555B;" vertex="1" parent="WIyWlLk6GJQsqaUBKTNV-1">
          <mxGeometry x="270" y="90" width="150" height="40" as="geometry" />
        </mxCell>
        <mxCell id="sxQEGzrt_uQ9CWILu95c-3" value="Leer nombre" style="shape=parallelogram;perimeter=parallelogramPerimeter;whiteSpace=wrap;html=1;fixedSize=1;strokeColor=#BAC8D3;fontColor=#EEEEEE;fillColor=#09555B;" vertex="1" parent="WIyWlLk6GJQsqaUBKTNV-1">
          <mxGeometry x="275" y="150" width="140" height="40" as="geometry" />
        </mxCell>
        <mxCell id="sxQEGzrt_uQ9CWILu95c-4" value="" style="endArrow=classic;html=1;rounded=0;strokeColor=#0B4D6A;exitX=0.5;exitY=1;exitDx=0;exitDy=0;entryX=0.5;entryY=0;entryDx=0;entryDy=0;" edge="1" parent="WIyWlLk6GJQsqaUBKTNV-1" source="sxQEGzrt_uQ9CWILu95c-0" target="sxQEGzrt_uQ9CWILu95c-2">
          <mxGeometry width="50" height="50" relative="1" as="geometry">
            <mxPoint x="470" y="90" as="sourcePoint" />
            <mxPoint x="520" y="40" as="targetPoint" />
          </mxGeometry>
        </mxCell>
        <mxCell id="sxQEGzrt_uQ9CWILu95c-5" value="" style="endArrow=classic;html=1;rounded=0;strokeColor=#0B4D6A;exitX=0.5;exitY=1;exitDx=0;exitDy=0;entryX=0.5;entryY=0;entryDx=0;entryDy=0;" edge="1" parent="WIyWlLk6GJQsqaUBKTNV-1" source="sxQEGzrt_uQ9CWILu95c-2" target="sxQEGzrt_uQ9CWILu95c-3">
          <mxGeometry width="50" height="50" relative="1" as="geometry">
            <mxPoint x="480" y="170" as="sourcePoint" />
            <mxPoint x="530" y="120" as="targetPoint" />
          </mxGeometry>
        </mxCell>
        <mxCell id="sxQEGzrt_uQ9CWILu95c-6" value="Imprimir &quot;Ingrese su edad&quot;" style="shape=parallelogram;perimeter=parallelogramPerimeter;whiteSpace=wrap;html=1;fixedSize=1;strokeColor=#BAC8D3;fontColor=#EEEEEE;fillColor=#09555B;" vertex="1" parent="WIyWlLk6GJQsqaUBKTNV-1">
          <mxGeometry x="230" y="210" width="190" height="40" as="geometry" />
        </mxCell>
        <mxCell id="sxQEGzrt_uQ9CWILu95c-7" value="" style="endArrow=classic;html=1;rounded=0;strokeColor=#0B4D6A;exitX=0.5;exitY=1;exitDx=0;exitDy=0;entryX=0.592;entryY=0.05;entryDx=0;entryDy=0;entryPerimeter=0;" edge="1" parent="WIyWlLk6GJQsqaUBKTNV-1" source="sxQEGzrt_uQ9CWILu95c-3" target="sxQEGzrt_uQ9CWILu95c-6">
          <mxGeometry width="50" height="50" relative="1" as="geometry">
            <mxPoint x="380" y="290" as="sourcePoint" />
            <mxPoint x="430" y="240" as="targetPoint" />
          </mxGeometry>
        </mxCell>
        <mxCell id="sxQEGzrt_uQ9CWILu95c-8" value="Leer edad" style="shape=parallelogram;perimeter=parallelogramPerimeter;whiteSpace=wrap;html=1;fixedSize=1;strokeColor=#BAC8D3;fontColor=#EEEEEE;fillColor=#09555B;" vertex="1" parent="WIyWlLk6GJQsqaUBKTNV-1">
          <mxGeometry x="275" y="280" width="150" height="40" as="geometry" />
        </mxCell>
        <mxCell id="sxQEGzrt_uQ9CWILu95c-9" value="" style="endArrow=classic;html=1;rounded=0;strokeColor=#0B4D6A;entryX=0.5;entryY=0;entryDx=0;entryDy=0;exitX=0.635;exitY=0.958;exitDx=0;exitDy=0;exitPerimeter=0;" edge="1" parent="WIyWlLk6GJQsqaUBKTNV-1" source="sxQEGzrt_uQ9CWILu95c-6" target="sxQEGzrt_uQ9CWILu95c-8">
          <mxGeometry width="50" height="50" relative="1" as="geometry">
            <mxPoint x="350" y="260" as="sourcePoint" />
            <mxPoint x="430" y="240" as="targetPoint" />
          </mxGeometry>
        </mxCell>
        <mxCell id="sxQEGzrt_uQ9CWILu95c-12" value="" style="edgeStyle=orthogonalEdgeStyle;rounded=0;orthogonalLoop=1;jettySize=auto;html=1;strokeColor=#0B4D6A;" edge="1" parent="WIyWlLk6GJQsqaUBKTNV-1" source="sxQEGzrt_uQ9CWILu95c-10" target="sxQEGzrt_uQ9CWILu95c-11">
          <mxGeometry relative="1" as="geometry" />
        </mxCell>
        <mxCell id="sxQEGzrt_uQ9CWILu95c-14" style="edgeStyle=orthogonalEdgeStyle;rounded=0;orthogonalLoop=1;jettySize=auto;html=1;strokeColor=#0B4D6A;" edge="1" parent="WIyWlLk6GJQsqaUBKTNV-1" source="sxQEGzrt_uQ9CWILu95c-10">
          <mxGeometry relative="1" as="geometry">
            <mxPoint x="550" y="380" as="targetPoint" />
          </mxGeometry>
        </mxCell>
        <mxCell id="sxQEGzrt_uQ9CWILu95c-10" value="edad&amp;gt;=18" style="rhombus;whiteSpace=wrap;html=1;strokeColor=#BAC8D3;fontColor=#EEEEEE;fillColor=#09555B;" vertex="1" parent="WIyWlLk6GJQsqaUBKTNV-1">
          <mxGeometry x="305" y="340" width="80" height="80" as="geometry" />
        </mxCell>
        <mxCell id="sxQEGzrt_uQ9CWILu95c-11" value="mensaje=&quot;Mayor de Edad&quot;" style="whiteSpace=wrap;html=1;fillColor=#09555B;strokeColor=#BAC8D3;fontColor=#EEEEEE;" vertex="1" parent="WIyWlLk6GJQsqaUBKTNV-1">
          <mxGeometry x="260" y="440" width="170" height="40" as="geometry" />
        </mxCell>
        <mxCell id="sxQEGzrt_uQ9CWILu95c-13" value="V" style="text;html=1;strokeColor=none;fillColor=none;align=center;verticalAlign=middle;whiteSpace=wrap;rounded=0;fontColor=#EEEEEE;" vertex="1" parent="WIyWlLk6GJQsqaUBKTNV-1">
          <mxGeometry x="340" y="410" width="60" height="30" as="geometry" />
        </mxCell>
        <mxCell id="sxQEGzrt_uQ9CWILu95c-23" style="edgeStyle=orthogonalEdgeStyle;rounded=0;orthogonalLoop=1;jettySize=auto;html=1;exitX=0.5;exitY=1;exitDx=0;exitDy=0;strokeColor=#0B4D6A;" edge="1" parent="WIyWlLk6GJQsqaUBKTNV-1" source="sxQEGzrt_uQ9CWILu95c-15">
          <mxGeometry relative="1" as="geometry">
            <mxPoint x="550" y="500" as="targetPoint" />
          </mxGeometry>
        </mxCell>
        <mxCell id="sxQEGzrt_uQ9CWILu95c-15" value="mensaje=&quot;Menor de Edad&quot;" style="rounded=0;whiteSpace=wrap;html=1;strokeColor=#BAC8D3;fontColor=#EEEEEE;fillColor=#09555B;" vertex="1" parent="WIyWlLk6GJQsqaUBKTNV-1">
          <mxGeometry x="460" y="440" width="180" height="40" as="geometry" />
        </mxCell>
        <mxCell id="sxQEGzrt_uQ9CWILu95c-17" value="" style="endArrow=classic;html=1;rounded=0;strokeColor=#0B4D6A;exitX=0.5;exitY=1;exitDx=0;exitDy=0;entryX=0.5;entryY=0;entryDx=0;entryDy=0;" edge="1" parent="WIyWlLk6GJQsqaUBKTNV-1" source="sxQEGzrt_uQ9CWILu95c-8" target="sxQEGzrt_uQ9CWILu95c-10">
          <mxGeometry width="50" height="50" relative="1" as="geometry">
            <mxPoint x="120" y="310" as="sourcePoint" />
            <mxPoint x="170" y="260" as="targetPoint" />
          </mxGeometry>
        </mxCell>
        <mxCell id="sxQEGzrt_uQ9CWILu95c-18" value="" style="endArrow=classic;html=1;rounded=0;strokeColor=#0B4D6A;entryX=0.5;entryY=0;entryDx=0;entryDy=0;" edge="1" parent="WIyWlLk6GJQsqaUBKTNV-1" target="sxQEGzrt_uQ9CWILu95c-15">
          <mxGeometry width="50" height="50" relative="1" as="geometry">
            <mxPoint x="550" y="380" as="sourcePoint" />
            <mxPoint x="650" y="370" as="targetPoint" />
          </mxGeometry>
        </mxCell>
        <mxCell id="sxQEGzrt_uQ9CWILu95c-19" value="F" style="text;html=1;strokeColor=none;fillColor=none;align=center;verticalAlign=middle;whiteSpace=wrap;rounded=0;fontColor=#EEEEEE;" vertex="1" parent="WIyWlLk6GJQsqaUBKTNV-1">
          <mxGeometry x="380" y="350" width="60" height="30" as="geometry" />
        </mxCell>
        <mxCell id="sxQEGzrt_uQ9CWILu95c-25" value="" style="endArrow=classic;html=1;rounded=0;strokeColor=#0B4D6A;" edge="1" parent="WIyWlLk6GJQsqaUBKTNV-1">
          <mxGeometry width="50" height="50" relative="1" as="geometry">
            <mxPoint x="550" y="490" as="sourcePoint" />
            <mxPoint x="350" y="490" as="targetPoint" />
          </mxGeometry>
        </mxCell>
        <mxCell id="sxQEGzrt_uQ9CWILu95c-26" value="Imprimir &quot;Bienvenido &quot;&lt;span style=&quot;background-color: rgb(43, 43, 43); color: rgb(169, 183, 198); font-family: &amp;quot;JetBrains Mono&amp;quot;, monospace;&quot;&gt;+ nombre+&lt;/span&gt;&lt;span style=&quot;background-color: rgb(43, 43, 43); font-family: &amp;quot;JetBrains Mono&amp;quot;, monospace; color: rgb(106, 135, 89);&quot;&gt;&quot; eres &quot; &lt;/span&gt;&lt;span style=&quot;background-color: rgb(43, 43, 43); color: rgb(169, 183, 198); font-family: &amp;quot;JetBrains Mono&amp;quot;, monospace;&quot;&gt;+ mensaje&lt;/span&gt;" style="rounded=0;whiteSpace=wrap;html=1;strokeColor=#BAC8D3;fontColor=#EEEEEE;fillColor=#09555B;" vertex="1" parent="WIyWlLk6GJQsqaUBKTNV-1">
          <mxGeometry x="260" y="510" width="145" height="60" as="geometry" />
        </mxCell>
        <mxCell id="sxQEGzrt_uQ9CWILu95c-27" value="" style="endArrow=classic;html=1;rounded=0;strokeColor=#0B4D6A;exitX=0.5;exitY=1;exitDx=0;exitDy=0;entryX=0.593;entryY=0.006;entryDx=0;entryDy=0;entryPerimeter=0;" edge="1" parent="WIyWlLk6GJQsqaUBKTNV-1" source="sxQEGzrt_uQ9CWILu95c-11" target="sxQEGzrt_uQ9CWILu95c-26">
          <mxGeometry width="50" height="50" relative="1" as="geometry">
            <mxPoint x="380" y="490" as="sourcePoint" />
            <mxPoint x="430" y="440" as="targetPoint" />
          </mxGeometry>
        </mxCell>
        <mxCell id="sxQEGzrt_uQ9CWILu95c-29" value="" style="endArrow=classic;html=1;rounded=0;strokeColor=#0B4D6A;exitX=0.579;exitY=1.039;exitDx=0;exitDy=0;exitPerimeter=0;entryX=0.5;entryY=0;entryDx=0;entryDy=0;" edge="1" parent="WIyWlLk6GJQsqaUBKTNV-1" source="sxQEGzrt_uQ9CWILu95c-26" target="sxQEGzrt_uQ9CWILu95c-1">
          <mxGeometry width="50" height="50" relative="1" as="geometry">
            <mxPoint x="120" y="680" as="sourcePoint" />
            <mxPoint x="170" y="630" as="targetPoint" />
          </mxGeometry>
        </mxCell>
      </root>
    </mxGraphModel>
  </diagram>
</mxfile>
